<svg width="24" height="24" viewBox="0 0 24 24" fill="none" xmlns="http://www.w3.org/2000/svg">
<path d="M10.5068 16.4191L17.413 10.0581L16.0581 8.58698L10.6361 13.5809L8.47062 11.1875L6.98755 12.5294L10.5068 16.4191Z" fill="currentColor"/>
<path fill-rule="evenodd" clip-rule="evenodd" d="M2.04199 12C2.04199 17.514 6.52799 22 12.042 22C17.556 22 22.042 17.514 22.042 12C22.042 6.486 17.556 2 12.042 2C6.52799 2 2.04199 6.486 2.04199 12ZM4.04199 12C4.04199 7.589 7.63099 4 12.042 4C16.453 4 20.042 7.589 20.042 12C20.042 16.411 16.453 20 12.042 20C7.63099 20 4.04199 16.411 4.04199 12Z" fill="currentColor"/>
</svg>
