<svg width="24" height="24" viewBox="0 0 24 24" fill="none" xmlns="http://www.w3.org/2000/svg">
<path d="M23 10H16V12H22V22H12V16H10V23C10 23.553 10.448 24 11 24H23C23.553 24 24 23.553 24 23V11C24 10.447 23.553 10 23 10Z" fill="currentColor"/>
<path d="M14.919 21.394L15.517 20H18.484L19.082 21.394L20.92 20.606L17.92 13.606C17.762 13.238 17.4 13 17 13C16.601 13 16.238 13.238 16.081 13.606L13.081 20.606L14.919 21.394ZM17.627 18H16.374L17 16.538L17.627 18Z" fill="currentColor"/>
<path d="M6 7.381L7 7.881L8 7.381V6H6V7.381Z" fill="currentColor"/>
<path d="M14 0H0V14H14V0ZM12 6H10V8C10 8.379 9.786 8.726 9.447 8.894L9.236 9L11.447 10.105L10.552 11.894L7 10.118L3.447 11.894L2.552 10.105L4.764 9L4.553 8.894C4.214 8.725 4 8.378 4 8V6H2V4H6V2H8V4H12V6Z" fill="currentColor"/>
<path d="M23 3H19.414L20.707 1.707L19.293 0.292999L15.586 4L19.293 7.707L20.707 6.293L19.414 5H22V8H24V4C24 3.447 23.553 3 23 3Z" fill="currentColor"/>
<path d="M4.293 17.707L5.586 19H2V16H0V20C0 20.553 0.448 21 1 21H5.586L4.293 22.293L5.707 23.707L9.414 20L5.707 16.293L4.293 17.707Z" fill="currentColor"/>
</svg>
