<svg width="24" height="24" viewBox="0 0 24 24" fill="none" xmlns="http://www.w3.org/2000/svg">
<path fill-rule="evenodd" clip-rule="evenodd" d="M15.4693 2.39536C15.5411 2.15839 15.7579 1.99943 16.0002 2C16.2426 2.00057 16.4587 2.16057 16.5293 2.39789L17.0461 4.10189L17.0465 4.10318C17.3742 5.19049 18.488 5.84131 19.5975 5.58567L21.3144 5.18702L21.316 5.18665C21.5542 5.13319 21.8013 5.24093 21.9247 5.45637C22.0488 5.67304 22.017 5.94559 21.8478 6.12743L21.8453 6.13005L20.6436 7.4302C19.8719 8.26291 19.8725 9.55139 20.644 10.3842L21.8453 11.6838L21.8478 11.6864C22.017 11.8683 22.0488 12.1408 21.9247 12.3575C21.8013 12.5729 21.5542 12.6807 21.316 12.6272L21.3144 12.6269L19.5992 12.2286C19.0612 12.1037 18.5238 12.4385 18.3989 12.9765C18.274 13.5145 18.6089 14.0518 19.1468 14.1768L20.8663 14.576L20.8706 14.577C21.9695 14.8271 23.1007 14.3284 23.6602 13.3514C24.219 12.3757 24.0786 11.1487 23.3129 10.3251L23.3116 10.3236L22.1117 9.02548L22.1106 9.02435C22.0495 8.95848 22.0495 8.85539 22.1106 8.78952L23.3116 7.49022L23.3128 7.4889C24.0786 6.66523 24.219 5.4382 23.6602 4.46245C23.1007 3.48545 21.9695 2.98679 20.8706 3.23687L19.148 3.63683C19.0692 3.65475 18.9864 3.60906 18.9613 3.52584L18.4462 1.82745L18.4454 1.82467C18.123 0.745668 17.1328 0.00266995 16.005 7.1736e-06C14.8763 -0.00265739 13.8819 0.737215 13.5551 1.81593L13.0393 3.51661L13.0386 3.51882C13.0136 3.60203 12.9304 3.64762 12.8515 3.6297L11.1337 3.23083L11.1294 3.22985C10.0305 2.97977 8.89928 3.47843 8.33977 4.45543C7.78099 5.43115 7.92143 6.65814 8.68712 7.48181L8.68841 7.4832L9.88938 8.78249C9.95046 8.84837 9.95046 8.95145 9.88938 9.01733L9.88834 9.01846L8.68598 10.3192C8.3111 10.7248 8.33598 11.3575 8.74155 11.7324C9.14712 12.1072 9.77979 12.0824 10.1547 11.6768L11.356 10.3771L11.357 10.376C12.1281 9.54322 12.1274 8.25524 11.356 7.42267L10.1547 6.12302L10.1522 6.1204C9.98295 5.93856 9.95124 5.66601 10.0753 5.44934C10.1987 5.23389 10.4458 5.12615 10.684 5.17963L12.4025 5.57864C13.512 5.83428 14.6257 5.18348 14.9535 4.0962L14.9539 4.09487L15.4693 2.39536ZM13 9C13 7.34315 14.3431 6 16 6C17.6569 6 19 7.34315 19 9C19 10.6569 17.6569 12 16 12C14.3431 12 13 10.6569 13 9ZM16 8C15.4477 8 15 8.44772 15 9C15 9.55229 15.4477 10 16 10C16.5523 10 17 9.55229 17 9C17 8.44772 16.5523 8 16 8ZM3 13C1.34315 13 0 14.3431 0 16V21C0 22.6569 1.34315 24 3 24H15C16.6569 24 18 22.6569 18 21V16C18 14.3431 16.6569 13 15 13H3ZM2 16C2 15.4477 2.44772 15 3 15H8V22H3C2.44772 22 2 21.5523 2 21V16ZM10 22H15C15.5523 22 16 21.5523 16 21V16C16 15.4477 15.5523 15 15 15H10V22Z" fill="currentColor"/>
</svg>
