<svg width="24" height="24" viewBox="0 0 24 24" fill="none" xmlns="http://www.w3.org/2000/svg">
<path d="M12.0022 22C6.4882 22 2.0022 17.515 2.0022 12C2.0022 6.487 6.4882 2 12.0022 2C17.5162 2 22.0022 6.486 22.0022 12C22.0022 17.515 17.5162 22 12.0022 22ZM12.0022 4C7.5912 4 4.0022 7.589 4.0022 12C4.0022 16.411 7.5912 20 12.0022 20C16.4132 20 20.0022 16.411 20.0022 12C20.0022 7.589 16.4132 4 12.0022 4Z" fill="currentColor"/>
<path d="M13.0022 15V11C13.0022 10.448 12.5552 10 12.0022 10H10.0022V12H11.0022V15H9.0022V17H15.0022V15H13.0022Z" fill="currentColor"/>
<path d="M12.0022 9.25C12.6926 9.25 13.2522 8.69036 13.2522 8C13.2522 7.30964 12.6926 6.75 12.0022 6.75C11.3118 6.75 10.7522 7.30964 10.7522 8C10.7522 8.69036 11.3118 9.25 12.0022 9.25Z" fill="currentColor"/>
</svg>
