<svg width="95" height="24" viewBox="0 0 95 24" fill="none" xmlns="http://www.w3.org/2000/svg">
<g clip-path="url(#clip0_21611_20475)">
<path d="M65.9834 15.2393C66.4602 15.2393 66.9212 15.2993 67.332 15.417C67.7427 15.5347 68.1039 15.7376 68.4131 16.0244L67.4658 17.0586C67.2823 16.8686 67.0759 16.7256 66.8457 16.6289C66.6153 16.5306 66.3281 16.4814 65.9834 16.4814C65.6967 16.4814 65.4376 16.5307 65.2041 16.6289C64.9721 16.7272 64.772 16.8624 64.6045 17.0381C64.4386 17.2137 64.3093 17.4214 64.2207 17.6631C64.1321 17.9048 64.0869 18.1659 64.0869 18.4463C64.0869 18.7266 64.1321 18.9959 64.2207 19.2344C64.3093 19.4728 64.4386 19.6789 64.6045 19.8545C64.7704 20.0302 64.9705 20.1663 65.2041 20.2646C65.436 20.3628 65.6969 20.4111 65.9834 20.4111C66.27 20.4111 66.5293 20.3791 66.7402 20.3115C66.9529 20.2454 67.1227 20.1777 67.25 20.1084V19.1172H66.1553V17.876H68.542V21.0605C68.1457 21.2668 67.7309 21.4169 67.3008 21.5088C66.8708 21.6006 66.4311 21.6475 65.9834 21.6475C65.5067 21.6475 65.0671 21.5727 64.666 21.4229C64.2649 21.273 63.9162 21.0601 63.623 20.7812C63.33 20.5025 63.1027 20.1658 62.9385 19.7695C62.7742 19.3731 62.6934 18.9316 62.6934 18.4434C62.6934 17.9552 62.7759 17.5135 62.9385 17.1172C63.1028 16.7207 63.3299 16.3833 63.623 16.1045C63.9162 15.8257 64.2633 15.6112 64.666 15.4629C65.067 15.3131 65.5068 15.2393 65.9834 15.2393ZM87.0645 15.2373C87.2368 15.2373 87.4157 15.2536 87.6025 15.2842C87.7893 15.3148 87.973 15.3663 88.1533 15.4355C88.3337 15.5048 88.5079 15.5975 88.6738 15.7119C88.8397 15.8263 88.99 15.9679 89.1221 16.1338L88.0918 16.9746C87.9598 16.8137 87.797 16.6914 87.6055 16.6045C87.4138 16.5191 87.1897 16.4756 86.9385 16.4756C86.6873 16.4756 86.4521 16.5238 86.2363 16.6221C86.0205 16.7204 85.8336 16.8556 85.6758 17.0312C85.518 17.2068 85.3943 17.4147 85.3057 17.6562C85.2171 17.898 85.1719 18.16 85.1719 18.4404C85.1719 18.7207 85.2171 18.9901 85.3057 19.2285C85.3943 19.4668 85.5164 19.6731 85.6709 19.8486C85.8255 20.0242 86.0075 20.1595 86.2168 20.2578C86.4262 20.3561 86.6519 20.4043 86.8936 20.4043C87.169 20.4043 87.414 20.3468 87.625 20.2324C87.8376 20.118 88.0135 19.9563 88.1504 19.75L89.2695 20.5869C89.0118 20.9494 88.6833 21.2153 88.2871 21.3877C87.8908 21.5601 87.4833 21.6455 87.0645 21.6455C86.5878 21.6455 86.1481 21.5716 85.7471 21.4219C85.3459 21.272 84.9973 21.0591 84.7041 20.7803C84.4109 20.5015 84.1838 20.164 84.0195 19.7676C83.8553 19.3712 83.7744 18.9296 83.7744 18.4414C83.7744 17.9532 83.8569 17.5116 84.0195 17.1152C84.1838 16.7189 84.4111 16.3823 84.7041 16.1035C84.9973 15.8247 85.3443 15.6102 85.7471 15.4619C86.1481 15.3121 86.5877 15.2373 87.0645 15.2373ZM41.8838 16.5801H40.1436V21.4922H38.7998V16.5801H37.0605V15.3906H41.8838V16.5801ZM47.4053 16.6318H44.6055V17.7695H47.249V19.0107H44.6055V20.251H47.5605V21.4922H43.2627V15.3906H47.4053V16.6318ZM50.6777 20.251H53.167V21.4922H49.334V15.3906H50.6777V20.251ZM55.9482 20.251H58.4375V21.4922H54.6055V15.3906H55.9482V20.251ZM74.5615 16.6318H71.7617V17.7695H74.4053V19.0107H71.7617V20.251H74.7168V21.4922H70.418V15.3906H74.5615V16.6318ZM94.8457 16.6318H92.0459V17.7695H94.6895V19.0107H92.0459V20.251H95V21.4922H90.7021V15.3906H94.8457V16.6318ZM28.0859 21.4912H26.7422V15.3906H28.0859V21.4912ZM34.3711 19.6309H34.3896V15.3906H35.7324V21.4912H33.9756L31.3135 17.1475H31.2959V21.4912H29.9521V15.3906H31.7793L34.3711 19.6309ZM61.1504 21.4912H59.8066V15.3906H61.1504V21.4912ZM80.8574 19.6309H80.875V15.3906H82.2188V21.4912H80.4609L77.7998 17.1475H77.7822V21.4912H76.4385V15.3906H78.2656L80.8574 19.6309ZM56.1064 4.64746C56.7202 4.64746 57.3134 4.72351 57.8418 4.875C58.3699 5.02644 58.8337 5.28745 59.2314 5.65625L58.0127 6.98828C57.7759 6.74493 57.5096 6.5593 57.2148 6.43359C56.92 6.3079 56.5494 6.24512 56.1064 6.24512C55.7376 6.24513 55.4021 6.3079 55.1025 6.43359C54.8031 6.55929 54.5472 6.7354 54.333 6.96094C54.1188 7.18652 53.9542 7.45369 53.8398 7.76465C53.7255 8.07565 53.668 8.41088 53.668 8.77344C53.668 9.13598 53.7239 9.48095 53.8398 9.78711C53.9542 10.0933 54.1187 10.3593 54.333 10.585C54.5472 10.8105 54.803 10.9866 55.1025 11.1123C55.4021 11.238 55.736 11.3008 56.1064 11.3008C56.477 11.3008 56.8088 11.2583 57.0811 11.1729C57.3549 11.0874 57.5726 11.0007 57.7354 10.9121V9.6377H56.3271V8.04004H59.3975V12.1396C58.8874 12.405 58.3562 12.5967 57.8027 12.7158C57.2486 12.8334 56.6831 12.8926 56.1064 12.8926C55.4927 12.8926 54.9272 12.7963 54.4102 12.6045C53.8931 12.4127 53.4453 12.137 53.0684 11.7793C52.6914 11.4215 52.3985 10.9858 52.1875 10.4766C51.9766 9.96579 51.8711 9.39725 51.8711 8.77051C51.8711 8.14359 51.9765 7.57274 52.1875 7.06348C52.3985 6.55277 52.6915 6.11941 53.0684 5.76172C53.4453 5.40397 53.8915 5.1283 54.4102 4.93652C54.9272 4.74475 55.4927 4.64747 56.1064 4.64746ZM63.4766 9.59863C63.4766 9.84193 63.5155 10.0675 63.5928 10.2754C63.6701 10.4816 63.7798 10.662 63.9199 10.8135C64.06 10.9649 64.2274 11.0826 64.4238 11.168C64.6187 11.2533 64.8313 11.2959 65.0615 11.2959C65.2919 11.2959 65.5017 11.2534 65.6934 11.168C65.885 11.0826 66.0507 10.9649 66.1924 10.8135C66.3325 10.662 66.4422 10.4833 66.5195 10.2754C66.5968 10.0691 66.6357 9.84356 66.6357 9.59863V4.84277H68.3643V9.66602C68.3643 10.1317 68.2934 10.5606 68.1533 10.9521C68.0132 11.3438 67.8035 11.6842 67.5264 11.9727C67.2494 12.261 66.905 12.4867 66.4912 12.6494C66.0772 12.8122 65.5996 12.8926 65.0615 12.8926C64.5237 12.8925 64.0343 12.8121 63.6221 12.6494C63.2081 12.4867 62.863 12.2611 62.5859 11.9727C62.3089 11.6842 62.0991 11.3438 61.959 10.9521C61.8189 10.5606 61.748 10.1316 61.748 9.66602V4.84277H63.4766V9.59863ZM83.6455 4.64746C84.2592 4.64746 84.8525 4.72353 85.3809 4.875C85.9092 5.02648 86.3736 5.28724 86.7715 5.65625L85.5518 6.98828C85.3149 6.74493 85.0487 6.5593 84.7539 6.43359C84.4591 6.30797 84.0884 6.24512 83.6455 6.24512C83.2769 6.24517 82.942 6.30799 82.6426 6.43359C82.3429 6.5593 82.0863 6.73531 81.8721 6.96094C81.658 7.18649 81.4932 7.45376 81.3789 7.76465C81.2646 8.07563 81.207 8.41091 81.207 8.77344C81.207 9.13594 81.263 9.48097 81.3789 9.78711C81.4933 10.0933 81.6579 10.3594 81.8721 10.585C82.0863 10.8106 82.3429 10.9866 82.6426 11.1123C82.942 11.2379 83.2753 11.3007 83.6455 11.3008C84.0159 11.3008 84.3479 11.2582 84.6201 11.1729C84.8939 11.0875 85.1117 11.0007 85.2744 10.9121V9.6377H83.8662V8.04004H86.9375V12.1396C86.4274 12.4051 85.8963 12.5967 85.3428 12.7158C84.7886 12.8335 84.2222 12.8926 83.6455 12.8926C83.0319 12.8925 82.4662 12.7962 81.9492 12.6045C81.4322 12.4127 80.9843 12.137 80.6074 11.7793C80.2305 11.4215 79.9376 10.9858 79.7266 10.4766C79.5156 9.96582 79.4112 9.39721 79.4111 8.77051C79.4111 8.14359 79.5155 7.57274 79.7266 7.06348C79.9375 6.55279 80.2306 6.11941 80.6074 5.76172C80.9843 5.40403 81.4307 5.1283 81.9492 4.93652C82.4662 4.74479 83.0319 4.64751 83.6455 4.64746ZM94.6855 6.44043H91.084V7.90332H94.4863V9.5H91.084V11.0977H94.8857V12.6943H89.3555V4.84277H94.6855V6.44043ZM28.3994 11.0957H31.6025V12.6934H26.6709V4.84277H28.3994V11.0957ZM40.8125 12.6934H38.8613L38.1846 11.0303H35.1367L34.4824 12.6934H32.5771L35.9678 4.84277H37.3984L40.8125 12.6934ZM48.1162 10.2979H48.1387V4.84277H49.8672V12.6934H47.6074L44.1826 7.10547H44.1602V12.6934H42.4307V4.84277H44.7803L48.1162 10.2979ZM78.2188 12.6934H76.2676L75.5908 11.0303H72.543L71.8887 12.6934H69.9834L73.374 4.84277H74.8047L78.2188 12.6934ZM59.3975 12.1436V12.1396L59.3994 12.1387L59.3975 12.1436ZM35.6816 9.56445H37.5986L36.6348 7.12988L35.6816 9.56445ZM73.0859 9.56445H75.0029L74.04 7.12988L73.0859 9.56445Z" fill="#7F7F7F"/>
<path d="M1.39174 1.1506C1.46423 -0.599601 5.86893 -0.114145 8.45131 1.02365C9.21322 1.36047 9.99637 1.85363 10.7277 2.46115H10.7384C18.3724 2.46115 21.1485 9.19184 21.3566 11.7658C21.4613 13.0583 21.3228 14.2256 21.0119 15.0959L21.0138 15.0979C20.7625 15.8035 20.3018 16.4176 19.8283 16.7512C19.279 17.1396 18.6793 17.2164 18.13 17.1858C17.2827 17.1406 16.2644 16.6611 15.8712 16.466C13.7738 15.4217 11.8344 13.1664 11.3576 12.5315C11.1949 13.1728 11.2337 13.0235 10.9777 13.592C10.1706 15.3857 7.34096 17.6696 6.93177 16.4641C7.40053 14.7059 7.43812 13.2781 7.33021 12.3772C6.53118 12.7865 5.91243 13.3296 5.45814 13.9533C5.19404 14.3158 5.13536 14.3913 4.96791 14.7424C4.95342 14.7762 4.88612 14.9263 4.84584 15.0471C4.84584 15.0471 4.84472 15.0466 4.84291 15.0471C4.59805 15.7356 4.23838 16.9925 4.64564 18.5529C5.26592 20.93 7.5397 22.7719 11.5187 22.9895C9.7 22.6849 7.92761 21.4892 6.64369 19.3557C7.55055 20.0696 8.19588 21.1154 13.3361 21.1154C13.6261 21.1156 14.1652 21.2813 14.4132 21.6936C14.4937 21.1156 14.8317 20.9253 14.9913 20.7932C15.7626 20.1504 18.7038 20.0579 20.5919 17.6936C19.3164 20.1838 17.6262 21.7536 16.0372 22.6281C16.0431 22.6268 15.9787 22.6658 15.8663 22.7317C15.6134 22.8719 15.2141 23.0527 15.0724 23.1203C8.24527 25.8971 2.11388 21.6277 0.570446 16.7463L0.571423 16.7453C0.444381 16.3511 0.308847 15.9117 0.186657 15.2346C0.0755008 14.6335 0.00818848 14.0044 0.000133678 13.3469C-0.0464671 8.96199 2.53386 5.56944 4.96791 4.17697C4.28326 3.09247 3.29087 2.03206 1.39174 1.1506ZM20.5949 17.6906C20.594 17.6917 20.5928 17.6925 20.5919 17.6936C20.5928 17.692 20.594 17.6903 20.5949 17.6887V17.6906ZM16.2413 11.7053C14.9961 10.5385 13.6884 9.91495 13.3195 10.3098C12.9496 10.7049 13.6601 11.9694 14.9035 13.136C16.1487 14.3027 17.4564 14.9263 17.8253 14.5315C18.1956 14.1365 17.4849 12.872 16.2413 11.7053Z" fill="#7F7F7F"/>
</g>
<defs>
<clipPath id="clip0_21611_20475">
<rect width="95" height="24" fill="white"/>
</clipPath>
</defs>
</svg>
